# xmcd
# Track frame offsets:
# 150
# 19655
# 38288
# 59353
# 78305
# 94198
# 117383
# 133380
# 152725
# 169765
#
# Disc length: 2505 seconds
# Revision: 1
# Processed by: cddbd v1.5.2PL0 Copyright (c) Steve Scherf et al.
# Submitted via: VisiTrax 2.11.3.279 - For more info visit www.synapsa.com
#
DISCID=7909c70a
DTITLE=Stavanger Gospel Choir - A Touch From Up Above
DYEAR=1994
DGENRE=Gospel
TTITLE0=Do not pass me by
TTITLE1=Working on a building
TTITLE2=Lean on me
TTITLE3=Teach me your ways
TTITLE4=You ask me why
TTITLE5=Changemakers
TTITLE6=Have a story
TTITLE7=It's gonna rain
TTITLE8=Too empty
TTITLE9=Gonna be all right (on the other side)
EXTD=
EXTT0=
EXTT1=
EXTT2=
EXTT3=
EXTT4=
EXTT5=
EXTT6=
EXTT7=
EXTT8=
EXTT9=
PLAYORDER=
